PS_ngait_og_ss8_kinetics.mot
version=1
nRows=10
nColumns=28
inDegrees=yes
endheader
time	1_ground_force_vx	1_ground_force_vy	1_ground_force_vz	1_ground_force_px	1_ground_force_py	1_ground_force_pz	2_ground_force_vx	2_ground_force_vy	2_ground_force_vz	2_ground_force_px	2_ground_force_py	2_ground_force_pz	3_ground_force_vx	3_ground_force_vy	3_ground_force_vz	3_ground_force_px	3_ground_force_py	3_ground_force_pz	1_ground_torque_x	1_ground_torque_y	1_ground_torque_z	2_ground_torque_x	2_ground_torque_y	2_ground_torque_z	3_ground_torque_x	3_ground_torque_y	3_ground_torque_z
  0.53750000	 31.91634876	786.11133544	 77.23598400	  0.40675481	 -0.00600000	  0.01629807	  0.00000000	  0.00000000	  0.00000000	 -0.30000000	 -0.00600000	  0.20000000	 13.92331687	 32.68163248	  4.25555346	  0.67656542	 -0.00600000	  0.18303025	  0.00000000	 -0.54743844	  0.00000000	  0.00000000	  0.00000000	  0.00000000	  0.00000000	 -0.21438338	  0.00000000
  0.53833333	 32.57623121	785.93788678	 77.17284896	  0.40712039	 -0.00600000	  0.01632079	  0.00000000	  0.00000000	  0.00000000	 -0.30000000	 -0.00600000	  0.20000000	 16.24944504	 37.31290399	  4.89125809	  0.67838280	 -0.00600000	  0.18422759	  0.00000000	 -0.55453450	  0.00000000	  0.00000000	  0.00000000	  0.00000000	  0.00000000	 -0.24164688	  0.00000000
  0.53916667	 33.22841750	785.65481501	 77.09950693	  0.40749615	 -0.00600000	  0.01632164	  0.00000000	  0.00000000	  0.00000000	 -0.30000000	 -0.00600000	  0.20000000	 18.62953738	 42.04623476	  5.54932778	  0.68024106	 -0.00600000	  0.18525097	  0.00000000	 -0.56158153	  0.00000000	  0.00000000	  0.00000000	  0.00000000	  0.00000000	 -0.26948938	  0.00000000
  0.54000000	 33.87149892	785.25932202	 77.01667354	  0.40788544	 -0.00600000	  0.01630484	  0.00000000	  0.00000000	  0.00000000	 -0.30000000	 -0.00600000	  0.20000000	 21.02853730	 46.85173419	  6.22582833	  0.68215027	 -0.00600000	  0.18608453	  0.00000000	 -0.56875955	  0.00000000	  0.00000000	  0.00000000	  0.00000000	  0.00000000	 -0.29566267	  0.00000000
  0.54083333	 34.50397873	784.75681408	 76.92570801	  0.40828743	 -0.00600000	  0.01627693	  0.00000000	  0.00000000	  0.00000000	 -0.30000000	 -0.00600000	  0.20000000	 23.41528421	 51.70644863	  6.91909161	  0.68409562	 -0.00600000	  0.18673713	  0.00000000	 -0.57625133	  0.00000000	  0.00000000	  0.00000000	  0.00000000	  0.00000000	 -0.31856667	  0.00000000
  0.54166667	 35.12573059	784.15731221	 76.82844481	  0.40869753	 -0.00600000	  0.01624396	  0.00000000	  0.00000000	  0.00000000	 -0.30000000	 -0.00600000	  0.20000000	 25.76351652	 56.59502763	  7.62906376	  0.68606368	 -0.00600000	  0.18724668	  0.00000000	 -0.58405380	  0.00000000	  0.00000000	  0.00000000	  0.00000000	  0.00000000	 -0.33776602	  0.00000000
  0.54250000	 35.73836394	783.46907941	 76.72686356	  0.40911082	 -0.00600000	  0.01620931	  0.00000000	  0.00000000	  0.00000000	 -0.30000000	 -0.00600000	  0.20000000	 28.05165617	 61.50796532	  8.35515759	  0.68805642	 -0.00600000	  0.18766141	  0.00000000	 -0.59200435	  0.00000000	  0.00000000	  0.00000000	  0.00000000	  0.00000000	 -0.35366086	  0.00000000
  0.54333333	 36.34412094	782.69582020	 76.62234166	  0.40952421	 -0.00600000	  0.01617306	  0.00000000	  0.00000000	  0.00000000	 -0.30000000	 -0.00600000	  0.20000000	 30.26102340	 66.43621956	  9.09461386	  0.69008145	 -0.00600000	  0.18801702	  0.00000000	 -0.60025725	  0.00000000	  0.00000000	  0.00000000	  0.00000000	  0.00000000	 -0.36694066	  0.00000000
  0.54416667	 36.94492740	781.83980626	 76.51467189	  0.40993668	 -0.00600000	  0.01613354	  0.00000000	  0.00000000	  0.00000000	 -0.30000000	 -0.00600000	  0.20000000	 32.37336848	 71.36512514	  9.84218891	  0.69213445	 -0.00600000	  0.18832741	  0.00000000	 -0.60950199	  0.00000000	  0.00000000	  0.00000000	  0.00000000	  0.00000000	 -0.37813306	  0.00000000
  0.54500000	 37.54284238	780.90828456	 76.40190522	  0.41034816	 -0.00600000	  0.01609009	  0.00000000	  0.00000000	  0.00000000	 -0.30000000	 -0.00600000	  0.20000000	 34.36878590	 76.27401877	 10.59080302	  0.69419903	 -0.00600000	  0.18859166	  0.00000000	 -0.62042148	  0.00000000	  0.00000000	  0.00000000	  0.00000000	  0.00000000	 -0.38734007	  0.00000000
